# xmcd
#
# Track frame offsets:
#	150
#	17868
#	32923
#	50832
#	66920
#	83171
#	99432
#	114646
#	126632
#	141501
#	155782
#	171230
#	193200
#	208241
#	223499
#	246440
#
# Disc length: 3572 seconds
#
# Revision: 1
# Processed by: cddbd v1.5.2PL0 Copyright (c) Steve Scherf et al.
# Submitted via: audiograbber 1.83.01
#
DISCID=0f0df210
DTITLE=Tony Lewis - Portrait Tony Lewis
DYEAR=1999
DGENRE=
TTITLE0=Booot-scootin´ Madmemoiselle
TTITLE1=You Are The Dream
TTITLE2=Ain´t Dead Yet
TTITLE3=Lonesome Lonly And Alone
TTITLE4=Bad Case Of Love
TTITLE5=When I´ve Forgotten To Rember You
TTITLE6=That´s Was Someone Else You Saw
TTITLE7=Not Too Much More To Say
TTITLE8=Sitting Here Fishing
TTITLE9=Babt It´s You
TTITLE10=Back Home Again
TTITLE11=Mississippi Crossing
TTITLE12=Two More Pairs Of Feet
TTITLE13=Driving Her Out Of My Mind
TTITLE14=Make A Ittle Noise
TTITLE15=Wanted Man
EXTD=
EXTT0=
EXTT1=
EXTT2=
EXTT3=
EXTT4=
EXTT5=
EXTT6=
EXTT7=
EXTT8=
EXTT9=
EXTT10=
EXTT11=
EXTT12=
EXTT13=
EXTT14=
EXTT15=
PLAYORDER=
